<svg width="18" height="18" viewBox="0 0 18 18" fill="none" xmlns="http://www.w3.org/2000/svg">
<path d="M9.00242 5.99872C10.655 5.99872 12.0036 7.34738 12.0036 9C12.0036 10.6526 10.655 12.0013 9.00242 12.0013C7.34983 12.0013 6.0012 10.6526 6.0012 9C6.0012 7.34738 7.34983 5.99872 9.00242 5.99872ZM0.00100327 9C0.00100327 7.75716 -0.0102539 6.52558 0.0595417 5.28499C0.129337 3.84402 0.458054 2.56515 1.51175 1.51144C2.56769 0.455477 3.84428 0.129006 5.28523 0.0592092C6.52804 -0.0105879 7.7596 0.000669702 9.00017 0.000669702C10.243 0.000669702 11.4745 -0.0105879 12.7151 0.0592092C14.1561 0.129006 15.4349 0.457728 16.4886 1.51144C17.5445 2.5674 17.871 3.84402 17.9408 5.28499C18.0106 6.52783 17.9993 7.75941 17.9993 9C17.9993 10.2406 18.0106 11.4744 17.9408 12.715C17.871 14.156 17.5423 15.4348 16.4886 16.4886C15.4326 17.5445 14.1561 17.871 12.7151 17.9408C11.4723 18.0106 10.2407 17.9993 9.00017 17.9993C7.75735 17.9993 6.52579 18.0106 5.28523 17.9408C3.84428 17.871 2.56544 17.5423 1.51175 16.4886C0.455803 15.4326 0.129337 14.156 0.0595417 12.715C-0.0125065 11.4744 0.00100327 10.2428 0.00100327 9ZM9.00242 13.6179C11.5578 13.6179 13.6202 11.5555 13.6202 9C13.6202 6.44452 11.5578 4.38213 9.00242 4.38213C6.44699 4.38213 4.38463 6.44452 4.38463 9C4.38463 11.5555 6.44699 13.6179 9.00242 13.6179ZM4.19551 5.27148C4.79215 5.27148 5.27397 4.78966 5.27397 4.193C5.27397 3.59635 4.79215 3.11452 4.19551 3.11452C3.59887 3.11452 3.11705 3.59635 3.11705 4.193C3.11687 4.33468 3.14465 4.475 3.19878 4.60593C3.25292 4.73686 3.33235 4.85582 3.43253 4.956C3.53271 5.05618 3.65167 5.13561 3.78259 5.18975C3.91352 5.24388 4.05383 5.27166 4.19551 5.27148Z" fill="#AD8B73"/>
</svg>
